
<global>
amp_veltrack=0
ampeg_attack=0.002
ampeg_release=0.35
</global>

<group>
group_label=PP
lpc_hicc1=42
lpc_locc1=0

<region>
end=306655
hikey=g#4
hivel=127
lokey=g4
loop_end=258422
loop_mode=loop_continuous
loop_start=103246
loop_xfade=18803
lovel=1
lpc=26ucQQyZQ8LI+ERCEGsCwtg8zkFIKcHBA+2UQaPaKMGJva1AWsQgwMbuPT+0bmTA1zefQM8r4j5l25nA01pXQIdKab+C4b0/qkt/vwBCJb+xGS8/LRpXP1jtF8Drp78/
lpc_rms=-41.91
pitch_keycenter=g#4
sample=SoloCello_trill_whole_PP_G#4.opus
</region>

<region>
end=323864
hikey=g#3
hivel=127
lokey=g3
loop_end=272924
loop_mode=loop_continuous
loop_start=109040
loop_xfade=19858
lovel=1
lpc=ECgiQgN7wsKNDp5CPlHlwUTggUG2zZHBcn94QZqETcFfZ+JA4xoLwA8yc0C6OyHBynoeQWYFeEDNB0PBDI76QG28hsBioadAKy04wHdRnb3tQc2/Ga1HQFy7msDQ2khA
lpc_rms=-40.83
pitch_keycenter=g#3
sample=SoloCello_trill_whole_PP_G#3.opus
</region>

<region>
end=292626
hikey=g#2
hivel=127
lokey=g2
loop_end=246599
loop_mode=loop_continuous
loop_start=98523
loop_xfade=17942
lovel=1
lpc=CzWJQrOPFcOs0K5CcdjZwJQ+mEG/vJ7BO1W4P/CIvcD77qdAwRamwFsw6kAZgKvAxGobQblz6796vgnA40kGwQ7OkkBQOIlAvOGfP+uIgsDHQuk/+rK9v2N2dcA7D31A
lpc_rms=-38.44
pitch_keycenter=g#2
sample=SoloCello_trill_whole_PP_G#2.opus
</region>

<region>
end=357718
hikey=A6
hivel=127
lokey=f5
loop_end=279953
loop_mode=loop_continuous
loop_start=81349
loop_xfade=21934
lovel=1
lpc=ybk/QZA14MFnINpBR4CEwQ+BJEG1jfDA3R6BQNwxCcAOFxRAUITbvz8XsT6m8Io7ebC7PaK6vz+AAS/AaM0QQOKiuL+bcsM/o7xyvjacEcB2iXZA8/CFwGXuSEBBUq+/
lpc_rms=-51.65
offset=19369
pitch_keycenter=F#5
sample=SoloCello_trill_whole_PP_F#5.opus
</region>

<region>
end=364515
hikey=f#4
hivel=127
lokey=f4
loop_end=271350
loop_mode=loop_continuous
loop_start=69050
loop_xfade=22350
lovel=1
lpc=MBZCQYhS78G0kPZBRvuewSaIRkEF3SPBI4QCQcloeMCUIEa+mYjCP0cP5b1zx/2/ywvmPzW0Jj8EuoS/0oBxvhJofL+qGWFAb5VFwGDszD8DmeS/SItGQG3BRcC7u4U/
lpc_rms=-48.77
offset=4757
pitch_keycenter=f#4
sample=SoloCello_trill_whole_PP_F#4.opus
</region>

<region>
end=289596
hikey=f#3
hivel=127
lokey=f3
loop_end=244046
loop_mode=loop_continuous
loop_start=97502
loop_xfade=17757
lovel=1
lpc=Dk8QQk3MucIsmKtCe6YWwhm/jEG141/BAIMCQX5ewcC004BAOzFewEBqFUEQSl7BwAnZQF8NCEGY5HnBnVAcQQ6eDMDAhzm/QLGFQFYWjsAJ6x/AMRwCQQRPA8Fhvl5A
lpc_rms=-39.72
pitch_keycenter=f#3
sample=SoloCello_trill_whole_PP_F#3.opus
</region>

<region>
end=297679
hikey=f#2
hivel=127
lokey=f2
loop_end=250858
loop_mode=loop_continuous
loop_start=100224
loop_xfade=18252
lovel=1
lpc=QJ6PQqFwJcNy1eVC0fPVwQo470HJzAnCQpJJQfPqDMGIENJAAZxjwElvmkD/8dzAk7cKQfrM+kCN2G/BpAisv0EmeEABk/NAYhLIwKxFLL8xSltArDoawF0iv8BUTLlA
lpc_rms=-36.79
pitch_keycenter=f#2
sample=SoloCello_trill_whole_PP_F#2.opus
</region>

<region>
end=356598
hikey=e5
hivel=127
lokey=d#5
loop_end=283747
loop_mode=loop_continuous
loop_start=120061
loop_xfade=21865
lovel=1
lpc=JE5+QUQvFMKA/Q1CzPCxwWEOekHW00XBxpH/QJslusB2ROZAAIffwMDynECLPIHAFTcFQNJOEkBC2XDAvKKYP4dNoD+YI6A+aW6Cvwdwob4Rvbg/aVUewGqhFECBxlO/
lpc_rms=-47.31
pitch_keycenter=e5
sample=SoloCello_trill_whole_PP_E5.opus
</region>

<region>
end=294454
hikey=e4
hivel=127
lokey=d#4
loop_end=248140
loop_mode=loop_continuous
loop_start=99138
loop_xfade=18055
lovel=1
lpc=2DMBQsURqsLWv65CdVVRwsRvCkIsk+rB4PV9QePdib6/6svAp4iRQIRrFz4lhU7AYs2fPyEGIkD7+jnA0qM1QNditMBGbw5Bx7/XwOPEaz832IRAAUmywGUTHkDFhAM9
lpc_rms=-38.20
offset=276
pitch_keycenter=e4
sample=SoloCello_trill_whole_PP_E4.opus
</region>

<region>
end=293805
hikey=e3
hivel=127
lokey=d#3
loop_end=247593
loop_mode=loop_continuous
loop_start=98919
loop_xfade=18015
lovel=1
lpc=4FZkQkEMEcP1dQVDh7t3wvAB7UEixrTBT0uDQY7iVMFEAuZAlqyJwOgfYUH0prjBrNBlQSPBNUGvXMzBNIiNQYda9cCiZIpACDzlP1NnoMD6BPq/jKoFQW4VKMFkMa9A
lpc_rms=-36.97
offset=1500
pitch_keycenter=e3
sample=SoloCello_trill_whole_PP_E3.opus
</region>

<region>
end=295526
hikey=e2
hivel=127
lokey=d#2
loop_end=249043
loop_mode=loop_continuous
loop_start=99499
loop_xfade=18120
lovel=1
lpc=xESbQh+tN8OQFgFDEeyqwYE0s0G8bA3CIp9VQTSvI8H6AfFAd2f3v4DrOkHEgpbBkycdQSu9REF7DE7Bfr3MwFGyoUDOKARBi4wLwYETRkCwzlhAe9kYwHmCFsHOufpA
lpc_rms=-35.94
pitch_keycenter=e2
sample=SoloCello_trill_whole_PP_E2.opus
</region>

<region>
end=298766
hikey=d5
hivel=127
lokey=c#5
loop_end=251774
loop_mode=loop_continuous
loop_start=100590
loop_xfade=18319
lovel=1
lpc=lD1yQQbMBsL8NvFBeXWKwQ0aNUEGpxLBp1DyQC/i28BiLKJA7eIawOrD0D8OhzbAw6S0PwdG6z+lCoa/+3pAv42Z1r5Buo4/RcALQD80Z8DzQ35A+glywGcGAUDjgka/
lpc_rms=-47.34
offset=1567
pitch_keycenter=d5
sample=SoloCello_trill_whole_PP_D5.opus
</region>

<region>
end=329235
hikey=d4
hivel=127
lokey=c#4
loop_end=265122
loop_mode=loop_continuous
loop_start=59774
loop_xfade=20187
lovel=1
lpc=c8J2Qce6FsIshhBCwqCawYNgI0FjBdbA5gXYP5ZqCz8dFj4+P0LtvNLG+76mkpW/leOHP+DALEB+xYnAL14zQJks9b8+OwxA/UwJv53YIb9oCvE+Ht4gv7Jt0D5/ypG9
lpc_rms=-46.76
offset=3437
pitch_keycenter=d4
sample=SoloCello_trill_whole_PP_D4.opus
</region>

<region>
end=351383
hikey=d3
hivel=127
lokey=c#3
loop_end=276707
loop_mode=loop_continuous
loop_start=69550
loop_xfade=21545
lovel=1
lpc=gZMDQnOemcJoOmVCBxaSwa4QjEH9yJbBoSEHQTPpaMCc1Hw+RB4SPSg1oEBDfAPB9JI4QPUCEEG8vCPB5o5vQIBxOsBeE4lAHetPwIZWNkBCoUfAgOsEQL14G8C6ZdQ/
lpc_rms=-42.04
pitch_keycenter=d3
sample=SoloCello_trill_whole_PP_D3.opus
</region>

<region>
end=325219
hikey=d2
hivel=127
lokey=c#2
loop_end=274066
loop_mode=loop_continuous
loop_start=109496
loop_xfade=19941
lovel=1
lpc=N+5HQm5J4sISwpZC15tXwTdRh0Ghb6vBMlhhQIsNAEDbmNc7lvYmwD2L60AVvSDBCvSrQAUbDkFb9BjB6rE9wEKZAkBpXuNAiiHBwKFsSj8I/RY+namCQErlHcH+KbtA
lpc_rms=-39.33
pitch_keycenter=d2
sample=SoloCello_trill_whole_PP_D2.opus
</region>

<region>
end=363423
hikey=c5
hivel=127
lokey=b4
loop_end=272685
loop_mode=loop_continuous
loop_start=122359
loop_xfade=22283
lovel=1
lpc=Q2XsQPNfhsG9aHtBDXIQwdu6tEDbBZTA1k1DQAxY379kJao/H0lMv11DGT+O/I2/UI9wP34CiT6AclG/AJLfPuRdCr9OkJQ/MVhqv7H55L6+b9Q/79WFv9BokjvGovE9
lpc_rms=-53.50
offset=377
pitch_keycenter=c5
sample=SoloCello_trill_whole_PP_C5.opus
</region>

<region>
end=362173
hikey=c4
hivel=127
lokey=b3
loop_end=286548
loop_mode=loop_continuous
loop_start=85149
loop_xfade=22207
lovel=1
lpc=FSG1QfKeZsKakGRCFT0DwjLTm0Fz1XjBYM9EQWIcEMFKQ6BAxRSVv16WHr93rXy/51cZQMrO3z7gHce/ewBkv1YzALzndiZAO0XQvw78Oz90AcG/dyMQQOMZPsCsZ9Y/
lpc_rms=-42.84
offset=14166
pitch_keycenter=c4
sample=SoloCello_trill_whole_PP_C4.opus
</region>

<region>
end=360847
hikey=c3
hivel=127
lokey=b2
loop_end=277912
loop_mode=loop_continuous
loop_start=71787
loop_xfade=22125
lovel=1
lpc=wSwVQqsKrsImlIBC0VyEwaBJP0E+RHvBefYHQQT3ucCI0FtA7JLbv+LejkB/MdTAR3tNQCo93EBBexfBmtSQPy7lFkCf/9Y/S9dKvgwQisDcvD1AKhq+valoBMDJnd4/
lpc_rms=-41.70
offset=2800
pitch_keycenter=c3
sample=SoloCello_trill_whole_PP_C3.opus
</region>

<region>
end=311075
hivel=127
key=c2
loop_end=262147
loop_mode=loop_continuous
loop_start=104734
loop_xfade=19074
lovel=1
lpc=qxZpQjZdDcNmAtxCl4QIwgBv10H+LcPBhbaCPtj3vEDnpDvAxSmCP2e/rr8g95O/XRS7QGmngkCoABTBSSwiPxKOc7u8wbhAWJyKwJ2ZrjygY0U/ZeaQPyq2mMBndFpA
lpc_rms=-37.50
offset=1421
sample=SoloCello_trill_whole_PP_C2.opus
</region>

<region>
end=328654
hikey=a#4
hivel=127
lokey=a4
loop_end=276961
loop_mode=loop_continuous
loop_start=110653
loop_xfade=20152
lovel=1
lpc=u+XFQEj7YcFHPV9BoVQMwRSDuEBwYZ/Az+aAQJedIcDOdXM/AhZDPt1GEr9GwBk/aHKiv6phB0Bjqei/PKydP9ET/b9dwh5ABkWKv4qiib4HIgY/VXvoPPac7b5zNjU+
lpc_rms=-51.74
offset=5866
pitch_keycenter=a#4
sample=SoloCello_trill_whole_PP_A#4.opus
</region>

<region>
end=305065
hikey=a#3
hivel=127
lokey=a3
loop_end=257082
loop_mode=loop_continuous
loop_start=102711
loop_xfade=18705
lovel=1
lpc=T9f5QZhBmMKIdYVC697gwYTUN0Ef5S/BVvFCQeivIMGLAL1AsLbEwB8fBkF6PBPBixOrQN3vt0DbvTnBa3unQPIR77uOXDBAOqTov4wfAr9qfUHArdrcQCcK9MCJv2RA
lpc_rms=-41.14
pitch_keycenter=a#3
sample=SoloCello_trill_whole_PP_A#3.opus
</region>

<region>
end=297834
hikey=a#2
hivel=127
lokey=a2
loop_end=250988
loop_mode=loop_continuous
loop_start=100276
loop_xfade=18262
lovel=1
lpc=5a5WQuCSAcNFRc5CawIOwgeztkHpXavBEN4ZQTv6X8D6ELK//do+vwv73ECWGwfBZ9yNQDeBO0EB3Z/ByZskQf4jwcBCGEtBqfI6wZyliED0ZaPAM0sLQU37DsHtyYpA
lpc_rms=-38.27
pitch_keycenter=a#2
sample=SoloCello_trill_whole_PP_A#2.opus
</region>
</group>

<group>
group_label=MF
lpc_hicc1=84
lpc_locc1=43

<region>
end=301125
hikey=g#4
hivel=127
lokey=g4
loop_end=253762
loop_mode=loop_continuous
loop_start=101384
loop_xfade=18464
lovel=1
lpc=iYFZQd2y+MFIeOlB8sGhwS17hEGWS2jBdW5HQQ7d5cAYStE/CHUQv8IaMj+eiCk58Gu2v+2RIEA2KwjAaKKcPwq+Tr+z29U/5fuOv6ae+j7obty/JZVJQEHQVMDg7s4/
lpc_rms=-27.46
pitch_keycenter=g#4
sample=SoloCello_trill_whole_MF_G#4.opus
</region>

<region>
end=290908
hikey=g#3
hivel=127
lokey=g3
loop_end=245152
loop_mode=loop_continuous
loop_start=97944
loop_xfade=17837
lovel=1
lpc=wonkQSOMi8Kpp3lC9pMBwuAvv0E93K7BJrBcQclJwsAgM0ZA8KbDwABgNkHI/1/BK0wCQa1iy0Brr1bBS3flQP83+L9EcatA4DbqwEv0AEBCVRdAw6ekvfYdaMBG/RFA
lpc_rms=-27.98
pitch_keycenter=g#3
sample=SoloCello_trill_whole_MF_G#3.opus
</region>

<region>
end=292678
hikey=g#2
hivel=127
lokey=g2
loop_end=246643
loop_mode=loop_continuous
loop_start=98540
loop_xfade=17946
lovel=1
lpc=vqlEQna17sKlmsJCngcpwpUxBkJ12IzBxo8BwD3GV8DueMFAXpT5wECPZ0EtC0bBvP9QP6PMd0HxwZnBvC8pQWCOJcFVjzxBGRQ2wGKpZMAC1WFAjgZcPmmmx8BFQopA
lpc_rms=-24.70
pitch_keycenter=g#2
sample=SoloCello_trill_whole_MF_G#2.opus
</region>

<region>
end=316197
hikey=A6
hivel=127
lokey=f5
loop_end=266463
loop_mode=loop_continuous
loop_start=106459
loop_xfade=19388
lovel=1
lpc=/kQHQcohgsGOmlxBgbgOwWrX7EANbLLAzBAoQGbJ7r/ntnFAgmWMwI9gi0ApwljAQ7jZP/brQD83Oeu/j1C3P8C5J78m2G4/ezdCv0QDGj8d8eO90um1Pn1Lx77i+Dc+
lpc_rms=-31.88
pitch_keycenter=F#5
sample=SoloCello_trill_whole_MF_F#5.opus
</region>

<region>
end=298389
hikey=f#4
hivel=127
lokey=f4
loop_end=251456
loop_mode=loop_continuous
loop_start=100463
loop_xfade=18296
lovel=1
lpc=3N8rQS4bw8HQ+69BaG9hweXzRkEJuTfBwzcBQWdTW8DVHFA/djnev4iHIEA0TP+/NrMYP6py9j+oPzDAcUraP8noGcCaWXVALYgFwOBawj5jkUq/cIXiP5DZHMCmgK0/
lpc_rms=-32.48
pitch_keycenter=f#4
sample=SoloCello_trill_whole_MF_F#4.opus
</region>

<region>
end=298496
hikey=f#3
hivel=127
lokey=f3
loop_end=251546
loop_mode=loop_continuous
loop_start=100499
loop_xfade=18302
lovel=1
lpc=EVXeQWQAhMJkkV9CUlbawabkr0FI857BarQjQW1ogcAEHKBA3loRwYVIRkG3pVTBXGW3QCN/B0F7Nm7BXxAFQVmzRcCIatZAbLuuwDBpPL85wsA//NQ3vuEdu74PB/Q+
lpc_rms=-26.47
pitch_keycenter=f#3
sample=SoloCello_trill_whole_MF_F#3.opus
</region>

<region>
end=301100
hikey=f#2
hivel=127
lokey=f2
loop_end=253741
loop_mode=loop_continuous
loop_start=101376
loop_xfade=18462
lovel=1
lpc=bvWTQq1SOsOBACFDXlOUwgL/gkJli2rCnGS8QRwugcHEuc5BGfn9wR28skHH3E3AzeYLwUFo30Gwjh3CX/a3QWFWc8A2S5JAz6c5wVNAx0BEKbY+J1cgQelFqMFIdyxB
lpc_rms=-22.98
pitch_keycenter=f#2
sample=SoloCello_trill_whole_MF_F#2.opus
</region>

<region>
end=320520
hikey=e5
hivel=127
lokey=d#5
loop_end=270106
loop_mode=loop_continuous
loop_start=107914
loop_xfade=19653
lovel=1
lpc=htIiQawjmcGjN3xB+O8qwRS2EkFyxLnAOrhJQIrMBcDOfsU/TcBJv/zliT8+AqG/qC6DPhSf7j9sC/C/8FCAPzZIOr8ljgtASK4YwKIW3z+UGUC/ldy7P2cgF8C61ew/
lpc_rms=-30.62
pitch_keycenter=e5
sample=SoloCello_trill_whole_MF_E5.opus
</region>

<region>
end=290311
hikey=e4
hivel=127
lokey=d#4
loop_end=244649
loop_mode=loop_continuous
loop_start=97743
loop_xfade=17801
lovel=1
lpc=9sGtQfNgVsKDZFhCwaQXwsWP80G8jL/BZlhhQaJ0AMGQz9tAz3+twHL5okAXUP7AgD51QAuAr0BTqQLBpJy6QPNVr8C7n+JAXA2ZwICBKkDMjoTAV32kQCT8cMBsDK0/
lpc_rms=-25.44
pitch_keycenter=e4
sample=SoloCello_trill_whole_MF_E4.opus
</region>

<region>
end=289665
hikey=e3
hivel=127
lokey=d#3
loop_end=244104
loop_mode=loop_continuous
loop_start=97526
loop_xfade=17761
lovel=1
lpc=GKApQl2i0cK+j7hCFX4pwtqP3kF/hNbB5i51QasSq8DYhp1AxjEGwVfdXUHpx5/B/bM2QQtWP0HirbPBhEZRQcAefcAMyQdB5Ag+wa5alUDVJRm/dsLuPzrfXsAjug1A
lpc_rms=-23.24
pitch_keycenter=e3
sample=SoloCello_trill_whole_MF_E3.opus
</region>

<region>
end=303922
hikey=e2
hivel=127
lokey=d#2
loop_end=256119
loop_mode=loop_continuous
loop_start=102326
loop_xfade=18635
lovel=1
lpc=Ssx2QrrkG8Pp3QlD5qiJwnt2cUJ0JU/CPlSoQTQ8WcGJ66JBAji8we3meUHViTQ/TjhMwcPe30HUBA/C9ZSjQQWhu79IVpg/R9v0wDN4FEAIK/w/LokYQVP0lMHDKRBB
lpc_rms=-25.43
pitch_keycenter=e2
sample=SoloCello_trill_whole_MF_E2.opus
</region>

<region>
end=290792
hikey=d5
hivel=127
lokey=c#5
loop_end=245054
loop_mode=loop_continuous
loop_start=97905
loop_xfade=17830
lovel=1
lpc=apYSQVhLjsGnE39Bg9g4weJJHkF6Fe7AP668QB/qjsByHhtA9BOhv2vdsj+KvSDAREgdQDPORb66FaS/eHp9P2MmG7/YjM8/4R3gv8JBxD88fyC+wDDWPpp0Qb+VaCQ/
lpc_rms=-31.32
pitch_keycenter=d5
sample=SoloCello_trill_whole_MF_D5.opus
</region>

<region>
end=291833
hikey=d4
hivel=127
lokey=c#4
loop_end=245931
loop_mode=loop_continuous
loop_start=98256
loop_xfade=17894
lovel=1
lpc=OzGMQTfsIsJs+xxC7G/cwYYDsUEbdo3BTQs0QTeu3sDri+RAMND8wDBuuEAv657Auwc0QN10ZEBL9cLAf3JbQBaqFMBsrFJAk0IAwNQzXD8HWEq/RKzhP1ucGcBZ54Q/
lpc_rms=-27.63
pitch_keycenter=d4
sample=SoloCello_trill_whole_MF_D4.opus
</region>

<region>
end=300780
hikey=d3
hivel=127
lokey=c#3
loop_end=253471
loop_mode=loop_continuous
loop_start=101268
loop_xfade=18442
lovel=1
lpc=iSzSQQ2kgcIu0mdC1wLvwQOJqkGjs1TBsBIjQAjUqb9OpS1AGqiIwEIVvECY8ZrA9jw4v5nGIEHax0rB71H0QIpHyMBRK+tAdqkzwBPJcr9vM74+vrxJvyVelD/+v8i+
lpc_rms=-31.50
pitch_keycenter=d3
sample=SoloCello_trill_whole_MF_D3.opus
</region>

<region>
end=317289
hikey=d2
hivel=127
lokey=c#2
loop_end=267383
loop_mode=loop_continuous
loop_start=106826
loop_xfade=19455
lovel=1
lpc=X4w1Qmy/5MJ+t8NCzxYjwmBmDEJcuAzCL1ZyQSf4FcHN9UhBEG9pwSu4K0FsPLA+JYPOwPLFdUFQGLLBmZs0QZ7g9746tdxAjXs5wXDmXkAWNus/FLZqQK8ZCcHC54dA
lpc_rms=-28.90
pitch_keycenter=d2
sample=SoloCello_trill_whole_MF_D2.opus
</region>

<region>
end=298687
hikey=c5
hivel=127
lokey=b4
loop_end=251707
loop_mode=loop_continuous
loop_start=100563
loop_xfade=18314
lovel=1
lpc=8la9QCxLQsFXIStBG9DXwBhLmkAA3FPA+4EWQG3Ftb+UNV29yCAAP/n8QL7appQ9YN6bvVxpGD8VN1q/52V/P3xdm7/xkqc/WywPv6i45L0Zbio9lt4mP//jd78JQxc/
lpc_rms=-35.96
pitch_keycenter=c5
sample=SoloCello_trill_whole_MF_C5.opus
</region>

<region>
end=305145
hikey=c4
hivel=127
lokey=b3
loop_end=257149
loop_mode=loop_continuous
loop_start=102737
loop_xfade=18710
lovel=1
lpc=kl+WQfS9McLmGiZC1rPIwV6smkGmnI7BAcA6QZlXwsBB2LhA4m6kwOCTK0CR9FzAwY8zQFkjOEBWEujA9GarQMb6csAplc1AoLfMwN/6dED5DFvAWBdSQO9N9r/71F8/
lpc_rms=-26.47
pitch_keycenter=c4
sample=SoloCello_trill_whole_MF_C4.opus
</region>

<region>
end=296125
hikey=c3
hivel=127
lokey=b2
loop_end=249548
loop_mode=loop_continuous
loop_start=99701
loop_xfade=18157
lovel=1
lpc=B3clQuPuyMKjDadCWNQQwo+KykEEmILBZXgbQIs7xb7Hz0NAM7b8wJyFNUFTvBrBjpY8PwsFX0H6CYfB4HokQT6OLMENfUJBBvU7wMB3fcDskug/jCJCPyBDjcD3n2NA
lpc_rms=-27.12
pitch_keycenter=c3
sample=SoloCello_trill_whole_MF_C3.opus
</region>

<region>
end=290003
hivel=127
key=c2
loop_end=244389
loop_mode=loop_continuous
loop_start=97639
loop_xfade=17782
lovel=1
lpc=hzOEQpOvJcOkUwpD3vRbwiYNP0IYoTPCWR5iQR9r4sBNE41BVfjNwdHFs0FQUQ3BPodxwIeWjUHherrBNWUkQY0LdECtv5y/y7qFwG0fKcAkvsJATj7pQCe8i8G6PgpB
lpc_rms=-25.29
offset=1758
sample=SoloCello_trill_whole_MF_C2.opus
</region>

<region>
end=294255
hikey=a#4
hivel=127
lokey=a4
loop_end=247972
loop_mode=loop_continuous
loop_start=99071
loop_xfade=18042
lovel=1
lpc=n9LCQMn1RsHfey5BeBrjwGTmpECGPmDAWOhJQLKnMsCNK8I/yaSPvw1hZT/A2hi/aN66PtZVDz8+Tn+/8EnJPpoqh75fXX4/LnVjvx+jkD6QEj0/kz8IvyNsKr/UADQ/
lpc_rms=-35.61
pitch_keycenter=a#4
sample=SoloCello_trill_whole_MF_A#4.opus
</region>

<region>
end=299050
hikey=a#3
hivel=127
lokey=a3
loop_end=252013
loop_mode=loop_continuous
loop_start=100685
loop_xfade=18336
lovel=1
lpc=YP+tQSzVTMJVyTdCGTTWwaD4qEHKapDBdqcwQaQUkMDxhRNAtNSswAJsDEEFJBbBxot+QPwOtUCBYhfBUwyhQFHd6b+gwa5AZ4HUwECoE0AHuVC9nWDnP5h7dcC8dg9A
lpc_rms=-29.11
pitch_keycenter=a#3
sample=SoloCello_trill_whole_MF_A#3.opus
</region>

<region>
end=299091
hikey=a#2
hivel=127
lokey=a2
loop_end=252048
loop_mode=loop_continuous
loop_start=100699
loop_xfade=18339
lovel=1
lpc=XC0PQm8ArsJMjY1CuILYwVaxrUH5JpzBxRDHQIYoW8CKppZAP4zbwMYzJkF85SHBAtYYQNDySkFU6ZXBpcsUQYowur/2VJdAh0bhwHU5B0Bjn6Y/R1HBPnSMN8BsU+0/
lpc_rms=-27.11
pitch_keycenter=a#2
sample=SoloCello_trill_whole_MF_A#2.opus
</region>
</group>

<group>
group_label=FF
lpc_hicc1=127
lpc_locc1=85

<region>
end=300470
hikey=g#4
hivel=127
lokey=g4
loop_end=253210
loop_mode=loop_continuous
loop_start=101163
loop_xfade=18423
lovel=1
lpc=ZR5LQZpu28EjV7hB7DdoweysQUE5XCHB7METQa/T/sD7eYdARTVkv8LZVz8xsynAFP4RQMiNIz8CbiXAsiJJQM4xWMDGnXFAvBOIwACmeUCeriXATlnSPzhii78Edgw/
lpc_rms=-19.47
pitch_keycenter=g#4
sample=SoloCello_trill_whole_FF_G#4.opus
</region>

<region>
end=300252
hikey=g#3
hivel=127
lokey=g3
loop_end=253026
loop_mode=loop_continuous
loop_start=101090
loop_xfade=18410
lovel=1
lpc=20i1QQBfYMJENlBCtY3fwdfKn0H8lpjBrJ5RQfr+z8D1ZFVAUYOpwHHBHUGWEh3BzdYxQEG/7EBtHUnBTGwQQdtbjcATiMRAhpACwQ/IqUCwezzAmEOlQCIl18B480BA
lpc_rms=-22.21
pitch_keycenter=g#3
sample=SoloCello_trill_whole_FF_G#3.opus
</region>

<region>
end=297267
hikey=g#2
hivel=127
lokey=g2
loop_end=250511
loop_mode=loop_continuous
loop_start=100085
loop_xfade=18227
lovel=1
lpc=D2N0QpVrHcNKZQdDxClHwpSHDUIP3QbC5x8bQabUS8HPqstBd8b3wbpvA0J8mq3B98GvQLPjQkFArY/BCzGFQIogX0CpBphAITDOwB7yzr+Wake/7fFKQRREdcH9zr9A
lpc_rms=-16.56
pitch_keycenter=g#2
sample=SoloCello_trill_whole_FF_G#2.opus
</region>

<region>
end=297132
hikey=A6
hivel=127
lokey=f5
loop_end=250397
loop_mode=loop_continuous
loop_start=100040
loop_xfade=18219
lovel=1
lpc=DESuQPlvI8EAwQpBQsCbwM5FikAHT4XAdlwcQBIDW76X0xY+I8lMv7Uwzz/3coe/RbWtPDNAoj+nVb6/DtfIP+3+6b/9tSJAAdgCwHIHtj/gxCu/4E1yP/VWi7+7BHY/
lpc_rms=-28.53
pitch_keycenter=F#5
sample=SoloCello_trill_whole_FF_F#5.opus
</region>

<region>
end=294054
hikey=f#4
hivel=127
lokey=f4
loop_end=247803
loop_mode=loop_continuous
loop_start=99003
loop_xfade=18030
lovel=1
lpc=FhTEQCSaTMF5yjdBF2AAwaVD1UDFhJrASwI9QJzkFcAxgck/QfGLv2L45D9H0SHAdqnVP3Q2Kz5cK5q/UkOsP2Kbxb8z6vk/1QWzv3LHMT+Sfli/LhCBPw70lb71k0m9
lpc_rms=-25.99
pitch_keycenter=f#4
sample=SoloCello_trill_whole_FF_F#4.opus
</region>

<region>
end=301048
hikey=f#3
hivel=127
lokey=f3
loop_end=253697
loop_mode=loop_continuous
loop_start=101358
loop_xfade=18459
lovel=1
lpc=D521QTbvVsIX+kBCzlPKwew1jUHDEIjBKwA8QU2fy8A0w5VA89XOwJmfEkGwDBXBmgsIQHT2CEFMcETBQn7iQGOETsBJLMVATsLVwBQPSkC0dGrAhRfJQAc1tcAvjxlA
lpc_rms=-22.16
pitch_keycenter=f#3
sample=SoloCello_trill_whole_FF_F#3.opus
</region>

<region>
end=293631
hikey=f#2
hivel=127
lokey=f2
loop_end=247446
loop_mode=loop_continuous
loop_start=98861
loop_xfade=18004
lovel=1
lpc=yDVXQhpkB8MEYO9CSbxtwnn8Q0KL3xfCXURfQcTXQcH3B4dB2cStwblinUEIddLAlR3FvyrXWEGS56jBEyczQSjYa8A7RupACx4Twcab60AMrwrB5o9bQY1HdMFOt9ZA
lpc_rms=-17.79
pitch_keycenter=f#2
sample=SoloCello_trill_whole_FF_F#2.opus
</region>

<region>
end=293822
hikey=e5
hivel=127
lokey=d#5
loop_end=247607
loop_mode=loop_continuous
loop_start=98925
loop_xfade=18016
lovel=1
lpc=0101QQamrcFQfpVBC5tOwV3iOEF/9hvB3t71QE5Hp8AiUpFAqD6KwOTAeECweYjAceF7QAnzXb8r4sY+zQaDvx+lwL6m249A+MHNwPpbxUAuS5bAJIKiQGtgncAY2S5A
lpc_rms=-22.13
pitch_keycenter=e5
sample=SoloCello_trill_whole_FF_E5.opus
</region>

<region>
end=309158
hikey=e4
hivel=127
lokey=d#4
loop_end=260531
loop_mode=loop_continuous
loop_start=104089
loop_xfade=18956
lovel=1
lpc=AThkQfwuAMIazudBb5KcwdAPhUEywFvBUJweQQs6xMCJ1hVAqM0ywBAMx0B0vgDBAV67QFnkj74PVhHA8haVP2zFEMCe9ptAoth4wMZx/z/qYbG/K/yiP9oef79viqY+
lpc_rms=-19.03
pitch_keycenter=e4
sample=SoloCello_trill_whole_FF_E4.opus
</region>

<region>
end=305119
hikey=e3
hivel=127
lokey=d#3
loop_end=257127
loop_mode=loop_continuous
loop_start=102729
loop_xfade=18708
lovel=1
lpc=MrEbQs8fwcITnq1C7nslwgsA0kELFczBb6KZQVywVcH/RBBBfVUTwcfoW0HxMlTBbQMmQGUtfEHqe8bBFE5+QdLrtcADxd1Axq0AwWLDjEDzzWXAWI6NQFTjsMCpI09A
lpc_rms=-16.47
pitch_keycenter=e3
sample=SoloCello_trill_whole_FF_E3.opus
</region>

<region>
end=288680
hikey=e2
hivel=127
lokey=d#2
loop_end=243274
loop_mode=loop_continuous
loop_start=97194
loop_xfade=17700
lovel=1
lpc=aehQQrTdBMPVi/FC1hd4woywQ0J51RbCnThSQUagHsHk935Bw1mmwVWmmUFcnuPAcl+HwAXFj0E+HMDB9Z1NQQ6KasASbfpATWYiwdHbrkBGaM7Ae651QVMxl8GVaAZB
lpc_rms=-17.09
pitch_keycenter=e2
sample=SoloCello_trill_whole_FF_E2.opus
</region>

<region>
end=302829
hikey=d5
hivel=127
lokey=c#5
loop_end=255198
loop_mode=loop_continuous
loop_start=101958
loop_xfade=18568
lovel=1
lpc=LuD5QLZLYMGpGDtB8aUCwVhQ9UAuDcXAaimRQC1UbMBoCDVALbyrv7RgGD/lwC2/nps8PsOnxj6rAjm+2hITPvA4Mr/xcxtAuwxOwOaJb0DpiCXAjpr9P3wjp79jRF8/
lpc_rms=-23.42
pitch_keycenter=d5
sample=SoloCello_trill_whole_FF_D5.opus
</region>

<region>
end=292935
hikey=d4
hivel=127
lokey=c#4
loop_end=246860
loop_mode=loop_continuous
loop_start=98627
loop_xfade=17961
lovel=1
lpc=yuREQfV848GkSc1BGWhpwY/4IkGsXxjB/537QIsjicCaLYo/3WZIv6fGVkCb2rDAu+1eQMKkkT/J5lDAe9kiQHL0LMBUjYJA2oVswLiiAUD9fa6+ypR4PndNsL/zuWo/
lpc_rms=-20.99
pitch_keycenter=d4
sample=SoloCello_trill_whole_FF_D4.opus
</region>

<region>
end=304311
hikey=d3
hivel=127
lokey=c#3
loop_end=256447
loop_mode=loop_continuous
loop_start=102457
loop_xfade=18659
lovel=1
lpc=vMTJQULmb8JKBUVCTAyXwUk+PEFuQCbBu7ZaQJ5wHMAOI3lAQ22iwMde5kDdH83AP4LdP5cawUAkeCbBfIXLQIzu6r8DBIBAf9GEwIM7iT/zAZK/bA46QJchR8CK5JY/
lpc_rms=-21.24
pitch_keycenter=d3
sample=SoloCello_trill_whole_FF_D3.opus
</region>

<region>
end=300395
hikey=d2
hivel=127
lokey=c#2
loop_end=253147
loop_mode=loop_continuous
loop_start=101138
loop_xfade=18419
lovel=1
lpc=mN8EQvZMosLav4dCHSXjwUb6s0Hm1ZvBqYD6QEej98DQxBpBnGInwSMlDEHFkhnAw+qXPmjoSkBlhszAdoKnP8tlMkAq0ak/Jo6AwNAbB0Cxr+S/l76TQCGM1sASRVNA
lpc_rms=-20.60
pitch_keycenter=d2
sample=SoloCello_trill_whole_FF_D2.opus
</region>

<region>
end=295431
hikey=c5
hivel=127
lokey=b4
loop_end=248963
loop_mode=loop_continuous
loop_start=99467
loop_xfade=18114
lovel=1
lpc=uniSQIE6C8HWo+JAN3ONwLcVXkDFESfA04wZQMVbEMB+YZ0/uxjEvtw8gT8O6bq/KBFhP0Z4WD6EklW/sXdjP7WqVr8gja0/SOu2v4tzhj+xWTy/nBj/PqCifr6uTUs+
lpc_rms=-27.61
pitch_keycenter=c5
sample=SoloCello_trill_whole_FF_C5.opus
</region>

<region>
end=302668
hikey=c4
hivel=127
lokey=b3
loop_end=255062
loop_mode=loop_continuous
loop_start=101904
loop_xfade=18558
lovel=1
lpc=hjhLQWqv4cHBesFBEFpWwXyhKEGhmiDBE7zgQIfGaMDrsglAvYg9wJthgkAV54/A0qszQP0Arj+Eu4HAlWkqQJAV4b8+3XBA5UmCwAbi/z8GmQy/l/omP1/L178bw6g/
lpc_rms=-21.40
pitch_keycenter=c4
sample=SoloCello_trill_whole_FF_C4.opus
</region>

<region>
end=300885
hikey=c3
hivel=127
lokey=b2
loop_end=253559
loop_mode=loop_continuous
loop_start=101303
loop_xfade=18449
lovel=1
lpc=+q3mQYi1i8LeZGVCOvajwbJHT0HuVVDButaGQAUPEb+6msY//XSqwJ5cI0FKbAnBvRfPP/lAAEH+8ULBo1XRQFkk3r/ZWWZA3DROwIKL0T4Z412/R2lRQBettMANKFBA
lpc_rms=-19.43
pitch_keycenter=c3
sample=SoloCello_trill_whole_FF_C3.opus
</region>

<region>
end=288289
hivel=127
key=c2
loop_end=242945
loop_mode=loop_continuous
loop_start=97062
loop_xfade=17677
lovel=1
lpc=aCs9Qk9668JcqcVCv0oZwpdS1EGU5ZXBeacdwBFhmD+d3SlBsDSHweNRgEHo0/fA3+nwvy2OTUH/xG/Bz+R9QBeck0COidO/CkHYv3lwr77Pf/+/NbIcQf2uRcFLxaxA
lpc_rms=-17.70
sample=SoloCello_trill_whole_FF_C2.opus
</region>

<region>
end=298139
hikey=a#4
hivel=127
lokey=a4
loop_end=251245
loop_mode=loop_continuous
loop_start=100379
loop_xfade=18280
lovel=1
lpc=V7amQEhrIcHLhgdBo5y1wIi1oUCjsoDAx2tZQHNjV8BoORlAAOeLv6CQlD+abPy/dd6oP22ueTz8nMG+15bcPs39Pb+oh4w/qZujv+zSxT/zOqy/YBOsP3dXrb+pumM/
lpc_rms=-30.79
pitch_keycenter=a#4
sample=SoloCello_trill_whole_FF_A#4.opus
</region>

<region>
end=294741
hikey=a#3
hivel=127
lokey=a3
loop_end=248382
loop_mode=loop_continuous
loop_start=99235
loop_xfade=18072
lovel=1
lpc=9wWKQV0xHMKG9wVC6zGSwVYkZUHssVXBZUMfQaZH6sC7P65A8EbAwCnW/0CgUwbBAX6TQOPlIUCws8DAskAjQDh/3j6QcRBAxc9LwG3Qjz/Uji6/JlYOQLonTcBoUck/
lpc_rms=-23.29
pitch_keycenter=a#3
sample=SoloCello_trill_whole_FF_A#3.opus
</region>

<region>
end=292111
hikey=a#2
hivel=127
lokey=a2
loop_end=246165
loop_mode=loop_continuous
loop_start=98349
loop_xfade=17911
lovel=1
lpc=WxL6QaHNksItHWBCO6iSwa2ZYEEp2zjBUZxWPyNAQb/1wXhAmRrXwLmYK0EDjwfB+YeKP+Y1CkHDBmLBnZUBQVEQo7498eE/SPlpwAgYK0BrQ3jAV/17QI3UUMB6aN0/
lpc_rms=-19.87
pitch_keycenter=a#2
sample=SoloCello_trill_whole_FF_A#2.opus
</region>
</group>